#!OML:ASF F:\VICON\USERDATA\INSTALL\rory3\rory3.ASF
:FULLY-SPECIFIED
:DEGREES
147
root -0.20280621431172619 17.46425677870957 60.41707114092639 2.509444270846207 -1.5123005684029283 -2.2732282087955062
lfemur -20.552337226687985 -2.1924619788813597 -17.22080492375673
ltibia 56.58095924493318
lfoot -3.077712467859788 -2.964533304707222
ltoes -11.708370947639718
rfemur -22.18213667374511 5.310911742358961 27.43356380070401
rtibia 54.95732829977334
rfoot -4.175011492243137 -13.667368423986058
rtoes 3.6012666518308953
lowerback 12.46563006017151 -0.15564172188797903 1.866591097145408
upperback -0.4476161140181357 0.18962000354116249 2.334994033539766
thorax -7.338722886443807 0.05138345242648901 1.2277204904627048
lowerneck -17.13396515751581 -3.2113371828774087 -2.7956213009338824
upperneck 19.335167153311044 -3.7512273779716256 2.3777121478495955
head 8.772805895416555 -1.8010852642156843 1.207773138204238
lclavicle -1.676598983140239e-15 -3.5928860480795534e-15
lhumerus -38.47265975119565 -8.02506822476104 89.60567264084224
lradius 74.10208517439253
lwrist 17.528119878486358
lhand -29.12949954541468 12.913628755868716
lfingers 7.125019999999999
lthumb -2.5625876189147343 42.96452256470365
rclavicle -1.6777747950018171e-15 -3.593698523772363e-15
rhumerus -36.37265193455063 -5.411681790815142 -85.80963188998535
rradius 58.068897307041496
rwrist 0.448001545619233
rhand -18.45360893946667 29.655478069656546
rfingers 7.125019999999999
rthumb 7.125049672603393 0.07014603507882489
148
root -0.21961375813005768 17.5102099382721 60.0245740329313 2.036488580586215 -1.6097914338388388 -2.179839896962851
lfemur -21.196381381365406 -2.0622848336700033 -17.38951335142979
ltibia 53.40976899780067
lfoot -0.6492484366731548 -4.468313619052447
ltoes -13.328092533641513
rfemur -21.330385148296067 5.506794404641802 27.356109799353362
rtibia 53.90405157135944
rfoot -5.150457833164664 -12.872243705112062
rtoes 2.6745320758181528
lowerback 12.749992438316946 -0.09688922429135377 1.8002189322156499
upperback -0.3773477582276229 0.26957787392177623 2.1910050139157375
thorax -7.58715349033602 0.08771514184584878 1.108727703351648
lowerneck -16.956577015842914 -3.2068790807531107 -2.803374585040239
upperneck 19.313052545799845 -3.7675507047739085 2.4452115584484737
head 8.76396544264823 -1.794720802541387 1.2188502146608342
lclavicle -1.6756767501934865e-15 -3.592232815607637e-15
lhumerus -38.51949573929734 -8.109588716778546 89.68342363165053
lradius 75.06822205306464
lwrist 18.309818301530775
lhand -29.199431203562604 12.79640732272638
lfingers 7.125019999999999
lthumb -2.6573466617621713 42.967388545540075
rclavicle -1.6770266078017464e-15 -3.593169535562831e-15
rhumerus -36.32587300815842 -5.402750967766783 -85.72906147092894
rradius 57.725872466503745
rwrist 0.8485587002548192
rhand -18.360685966763796 29.673110271928127
rfingers 7.125019999999999
rthumb 7.223791671450009 -0.0331978722060807
149
root -0.2319887524889024 17.556270587373742 60.30931264959002 1.970018553355917 -1.3901039907376187 -1.8545854619794082
lfemur -21.324227820110963 -2.104644957687377 -17.92346052391191
ltibia 49.728291037035625
lfoot 1.9101278584182666 -6.1197258200650415
ltoes -14.517622494891498
rfemur -20.501285154043515 5.496776944425788 26.96134142391001
rtibia 52.804684870960195
rfoot -5.7866511182167235 -12.044432776339509
rtoes 1.9014977274907061
lowerback 12.54237513725553 -0.13355524798777724 1.550258239672443
upperback -0.3969507302853858 0.138847567817716 2.0049386135981795
thorax -7.539314572893948 0.029364458372051816 1.1449912419614434
lowerneck -16.8172057607484 -3.202835882061274 -2.8765946680136714
upperneck 19.377862286770934 -3.75582575790476 2.5401326678890843
head 8.73812754888475 -1.8023167215911675 1.2614781141306017
lclavicle -1.676396109221081e-15 -3.592743680829095e-15
lhumerus -38.828611376074484 -8.001144527392887 89.7517147225912
lradius 75.79926919616445
lwrist 19.20233818401043
lhand -29.249774517476748 12.94705670541484
lfingers 7.125019999999999
lthumb -2.833725637741281 42.96204539825763
rclavicle -1.6773017264612823e-15 -3.593364036753191e-15
rhumerus -36.49427823437314 -5.4630508452308435 -85.60173905383255
rradius 57.45993004971152
rwrist 1.137091239191741
rhand -18.36368311126546 29.515630914829575
rfingers 7.125019999999999
rthumb 7.2694114142116675 -0.2567596080422926
150
root -0.2528403490782596 17.57709914250369 60.512442097810656 1.8036836472489437 -1.1077909938209225 -1.9446967640060475
lfemur -21.09468253365443 -2.1634562781331423 -18.00959878314014
ltibia 46.33912816935571
lfoot 4.4225344813798095 -7.392588907702266
ltoes -15.370057874000041
rfemur -19.590508434789527 5.651546952010788 26.990403512993186
rtibia 51.57958552225864
rfoot -6.436677630284868 -11.466329202760765
rtoes 1.8854759636370682
lowerback 12.563308229893444 -0.1974690896634858 1.7290167366372577
upperback -0.38159699740758424 0.07158217472084072 1.9463562683446034
thorax -7.53792822987648 -0.014361750994005273 1.134935593909591
lowerneck -16.781258790778878 -3.205782979729197 -2.9117991467437063
upperneck 19.44638136159635 -3.761405872436684 2.5587217095141472
head 8.749593433477743 -1.8134322972000354 1.2564646653185827
lclavicle -1.6745769409277009e-15 -3.591458428617572e-15
lhumerus -39.22121524971162 -7.887463902344043 89.75986834934159
lradius 76.22557398437247
lwrist 19.72757530757852
lhand -29.398742724334767 12.821494059358272
lfingers 7.125019999999999
lthumb -2.9715877212619226 42.875261348192616
rclavicle -1.6782021974600984e-15 -3.594000784425232e-15
rhumerus -36.75049216754961 -5.640199300889843 -85.4024800598663
rradius 57.19995957356351
rwrist 1.3666427941653936
rhand -18.227615932472073 29.401490756740035
rfingers 7.125019999999999
rthumb 7.445259593862303 -0.0565284507872465
